<svg width="66" height="57" viewBox="0 0 66 57" fill="none" xmlns="http://www.w3.org/2000/svg">
<path fill-rule="evenodd" clip-rule="evenodd" d="M30.9626 42.7656L49.9543 25.8614C38.3459 11.9239 30.6626 0.0780459 0.0709037 13.4656C33.9834 -15.5886 49.8793 8.75303 65.2085 26.8239L36.7543 51.6114C26.4751 59.4573 12.7376 57.6447 4.93763 47.8239C-2.87904 37.9822 -1.23741 23.6656 8.60426 15.8531C17.9501 8.43221 31.4335 9.48639 39.5085 18.2697C40.9543 19.7947 42.3501 21.3697 43.7001 22.9697C44.4335 23.8405 45.1585 24.7197 45.8668 25.603L27.4709 41.8031C24.0876 44.2947 17.5751 42.7864 15.1668 38.4322L30.6918 24.6531C25.6793 20.3614 18.1168 21.0656 13.7918 26.0447C9.44597 31.0489 9.97929 38.6281 14.9835 42.9739C19.5918 46.9739 26.4626 46.8822 30.9626 42.7656Z" fill="white"/>
</svg>
